# xmcd
# Copyright (C) 1995-1998 Ti Kan
#
# Track frame offsets:
#       150
#       26931
#       46766
#       61312
#       79206
#
# Disc length: 1269 seconds
#
# Revision: 0
# Processed by: cddbd v1.5.1PL2 Copyright (c) Steve Scherf et al.
# Submitted via: CD-Transfer v1.0
#
DISCID=3a04f305
DTITLE=Falle Disco - 
DYEAR=1900
DGENRE=
TTITLE0=Candida
TTITLE1=Falle 1
TTITLE2=Falle 2
TTITLE3=Falle 3
TTITLE4=Falle 4
EXTD=
EXTT0=
EXTT1=
EXTT2=
EXTT3=
EXTT4=
PLAYORDER=
